<svg xmlns="http://www.w3.org/2000/svg" viewBox="0 0 576 129" role="img" aria-label="Elitez">
  <!-- Cream-on-dark variant of the wordmark; same geometry as logo.svg. -->
  <g fill="#FFF7EE">
    <rect x="0"   y="0"    width="100" height="26"/>
    <rect x="0"   y="0"    width="26"  height="129"/>
    <rect x="0"   y="51"   width="84"  height="26"/>
    <rect x="0"   y="103"  width="100" height="26"/>
    <rect x="110" y="0"    width="26"  height="129"/>
    <rect x="110" y="103"  width="92"  height="26"/>
    <rect x="212" y="0"    width="26"  height="129"/>
    <rect x="372" y="0"    width="100" height="26"/>
    <rect x="372" y="0"    width="26"  height="129"/>
    <rect x="372" y="51"   width="84"  height="26"/>
    <rect x="372" y="103"  width="100" height="26"/>
    <rect x="482" y="0"    width="94"  height="26"/>
    <rect x="482" y="103"  width="94"  height="26"/>
    <polygon points="556,26 576,26 502,103 482,103"/>
  </g>
  <g fill="#FF6A00">
    <circle cx="297" cy="14" r="14"/>
    <rect x="284" y="32" width="26" height="97"/>
    <rect x="252" y="60" width="90" height="22"/>
  </g>
</svg>
